<?xml version="1.0" standalone="no"?>
<!DOCTYPE svg PUBLIC "-//W3C//DTD SVG 20010904//EN"
 "http://www.w3.org/TR/2001/REC-SVG-20010904/DTD/svg10.dtd">
<svg version="1.0" xmlns="http://www.w3.org/2000/svg"
 width="1217.000000pt" height="1217.000000pt" viewBox="0 0 1217.000000 1217.000000"
 preserveAspectRatio="xMidYMid meet">
<metadata>
Created by potrace 1.14, written by Peter Selinger 2001-2017
</metadata>
<g transform="translate(0.000000,1217.000000) scale(0.100000,-0.100000)"
fill="#000000" stroke="none">
<path d="M5357 12153 c-1 -1 -25 -4 -52 -8 -28 -3 -66 -8 -85 -12 -19 -3 -49
-7 -67 -8 -17 -2 -35 -5 -40 -8 -5 -3 -28 -8 -53 -12 -25 -4 -48 -9 -52 -11
-4 -3 -29 -7 -55 -9 -60 -6 -187 -22 -233 -30 -14 -3 -38 -7 -55 -10 -46 -8
-65 -12 -135 -30 -36 -9 -92 -18 -125 -19 -33 -1 -69 -5 -80 -8 -11 -3 -40
-12 -65 -19 -25 -7 -47 -13 -50 -14 -20 -4 -112 -43 -147 -62 -23 -13 -49 -23
-58 -23 -9 0 -27 -8 -42 -17 -14 -10 -32 -18 -40 -19 -17 -3 -91 -51 -113 -74
-13 -14 -122 -70 -136 -70 -12 0 -210 -87 -324 -142 -102 -50 -381 -222 -400
-248 -3 -3 -21 -16 -40 -28 -19 -12 -48 -33 -64 -47 -16 -14 -33 -25 -37 -25
-4 0 -14 -6 -21 -13 -7 -7 -112 -80 -233 -161 -121 -82 -222 -151 -225 -155
-3 -3 -23 -19 -46 -34 -22 -15 -49 -35 -60 -45 -10 -9 -32 -28 -49 -40 -16
-13 -73 -63 -125 -112 -53 -48 -111 -101 -130 -116 -59 -50 -189 -190 -265
-288 -16 -21 -36 -45 -43 -52 -6 -7 -12 -17 -12 -23 0 -6 -3 -11 -7 -11 -5 0
-21 -23 -38 -51 -16 -28 -37 -62 -45 -75 -118 -181 -284 -456 -361 -599 -29
-55 -68 -127 -86 -160 -18 -33 -37 -69 -42 -80 -5 -11 -39 -73 -75 -138 -36
-65 -66 -120 -66 -123 0 -3 -8 -18 -18 -32 -36 -52 -302 -568 -302 -586 0 -3
-13 -34 -29 -68 -31 -69 -121 -303 -126 -329 -2 -9 -13 -46 -24 -84 -12 -37
-23 -77 -25 -89 -2 -11 -10 -43 -16 -71 -19 -82 -20 -89 -25 -124 -3 -18 -7
-36 -9 -40 -2 -3 -7 -33 -11 -66 -3 -33 -10 -78 -15 -100 -5 -22 -14 -69 -19
-105 -6 -36 -13 -75 -15 -86 -2 -12 -7 -39 -10 -60 -4 -22 -20 -118 -36 -214
-16 -96 -32 -197 -35 -225 -4 -27 -8 -61 -11 -75 -16 -97 -24 -186 -29 -325
-2 -66 -5 -147 -6 -180 -2 -56 -41 -207 -59 -230 -5 -6 -11 -22 -14 -35 -3
-14 -11 -48 -19 -76 -20 -70 -14 -368 9 -445 2 -9 7 -32 9 -50 8 -58 53 -251
74 -318 12 -35 25 -89 30 -120 13 -77 86 -294 115 -339 27 -43 65 -82 130
-135 55 -46 69 -67 168 -257 139 -267 191 -372 279 -569 87 -193 195 -412 253
-513 15 -26 29 -69 32 -95 6 -61 38 -164 70 -221 23 -41 100 -151 114 -162 3
-3 17 -21 30 -40 13 -19 29 -40 35 -47 5 -6 21 -26 35 -45 31 -41 244 -254
325 -326 33 -29 67 -58 75 -66 8 -7 44 -32 80 -55 36 -22 70 -44 75 -48 34
-26 97 -52 140 -57 36 -4 66 -17 107 -46 31 -22 60 -40 63 -40 3 0 11 -5 18
-11 100 -87 744 -499 781 -499 5 0 17 -7 27 -16 9 -8 24 -16 32 -18 8 -1 26
-10 40 -19 15 -10 27 -15 27 -11 0 4 6 1 14 -5 7 -6 65 -38 127 -70 230 -117
304 -156 309 -161 3 -3 21 -13 40 -24 19 -10 49 -26 65 -36 17 -10 70 -41 118
-69 49 -28 93 -51 98 -51 5 0 9 -4 9 -10 0 -5 9 -10 19 -10 11 0 21 -4 23 -8
9 -21 390 -182 513 -216 10 -3 91 -27 110 -32 37 -12 215 -56 240 -60 17 -3
37 -7 45 -10 8 -3 29 -8 45 -10 17 -3 41 -7 55 -11 14 -3 36 -7 50 -8 42 -5
114 -16 130 -20 8 -3 31 -7 50 -10 71 -10 112 -24 152 -52 75 -52 108 -65 172
-65 34 -1 75 -5 91 -9 17 -4 55 -11 85 -14 30 -3 69 -8 85 -11 131 -20 331
-21 351 -2 11 12 71 -2 145 -32 100 -42 159 -62 193 -66 16 -2 47 -9 70 -15
57 -16 363 -13 456 5 14 3 43 7 65 11 22 3 47 7 55 10 8 2 35 6 60 9 25 3 56
8 70 10 14 3 41 7 60 10 87 13 447 109 540 144 21 7 22 8 54 17 16 4 65 23
110 42 44 19 115 45 156 59 72 22 173 76 206 108 8 9 19 16 23 16 15 0 86 77
145 156 32 43 81 97 110 120 54 44 186 124 289 175 34 18 64 34 67 38 3 3 25
16 50 29 25 12 62 32 82 45 20 12 69 41 108 65 65 40 220 144 245 164 5 5 55
43 110 85 55 42 108 83 117 92 9 9 31 27 48 41 18 14 42 33 53 44 12 10 44 37
70 60 27 22 70 61 96 86 26 25 92 86 145 135 171 157 280 269 376 385 19 24
42 51 50 61 8 10 24 30 35 44 11 14 25 31 31 38 6 6 69 91 142 187 72 96 136
180 142 187 5 7 10 15 10 18 0 3 18 33 41 66 45 67 102 178 174 339 26 58 58
130 72 160 14 30 50 111 80 180 55 127 70 158 151 310 196 370 274 529 331
671 42 106 60 156 66 179 1 3 6 16 12 30 10 24 54 162 59 185 10 49 69 233 88
276 19 44 45 140 48 176 0 5 4 18 8 29 5 12 11 54 15 95 3 40 8 75 10 78 3 6
15 92 19 136 1 11 -2 34 -7 50 -5 17 -10 136 -12 265 -2 129 -6 246 -10 260
-3 14 -8 41 -10 60 -2 19 -6 49 -9 65 -8 45 -27 157 -31 180 -2 11 -13 65 -24
120 -32 160 -66 352 -76 440 -3 28 -8 61 -10 75 -12 67 -14 84 -31 275 -18
207 -35 341 -54 420 -10 43 -39 164 -44 180 -22 82 -28 104 -36 125 -5 14 -27
84 -49 155 -79 258 -96 351 -81 452 7 44 -11 115 -30 121 -10 4 -40 46 -75
104 -5 10 -35 66 -65 125 -30 59 -58 110 -61 113 -4 3 -19 30 -34 60 -15 30
-47 88 -71 127 -24 40 -44 77 -44 83 0 5 -3 10 -8 10 -4 0 -14 15 -21 33 -19
43 -73 131 -83 135 -4 2 -8 10 -8 18 0 7 -9 19 -20 26 -11 7 -20 17 -20 22 0
23 -56 79 -103 102 -94 48 -137 84 -336 283 -108 108 -212 210 -231 226 -45
39 -188 154 -224 180 -15 11 -36 27 -46 35 -10 8 -31 24 -46 35 -15 11 -32 25
-38 30 -6 6 -45 36 -86 67 -41 32 -79 61 -85 66 -32 26 -216 162 -220 162 -3
0 -13 7 -22 15 -10 8 -70 50 -133 94 -63 43 -124 86 -135 95 -11 9 -49 37 -85
63 -36 26 -67 50 -70 53 -17 20 -208 160 -218 160 -7 0 -12 4 -12 8 0 4 -35
29 -77 54 -104 62 -212 111 -313 143 -30 9 -62 19 -70 21 -8 3 -17 6 -20 6 -3
0 -29 9 -57 19 -29 10 -53 16 -53 14 0 -10 -110 35 -154 64 -28 17 -56 31 -63
31 -7 0 -13 4 -13 8 0 4 -17 14 -37 21 -21 7 -47 16 -58 21 -30 13 -176 57
-210 63 -16 3 -41 8 -55 11 -68 15 -105 19 -260 31 -30 2 -66 7 -80 10 -37 10
-180 36 -220 40 -19 3 -46 7 -60 10 -14 4 -135 6 -270 6 -149 0 -261 4 -285
11 -22 6 -49 12 -60 13 -11 2 -55 10 -99 19 -124 25 -163 28 -453 30 -178 2
-276 6 -285 13 -33 28 -145 47 -286 48 -79 0 -144 0 -145 -2z"/>
</g>
</svg>
