<svg xmlns="http://www.w3.org/2000/svg" xmlns:xlink="http://www.w3.org/1999/xlink" style="margin:auto;background:rgba(NaN, NaN, NaN, 0);display:block;z-index:-1;position:relative;" width="1920" height="1080" preserveAspectRatio="xMidYMid" viewBox="0 0 1920 1080">
<g transform="translate(960,540) scale(1,1) translate(-960,-540)"><path id="path0" d="M 575.9289646459277 619.1472466019088
c 0 30.796033380004893 -7.535199656809707 8.845669162341832 -16.380868819151537 8.845669162341832
S 543.1672270076248 649.9432799819137 543.1672270076248 619.1472466019088
s 7.535199656809707 -8.845669162341832 16.380868819151537 -8.845669162341832
S 575.9289646459277 588.3512132219039 575.9289646459277 619.1472466019088
z" fill="none" stroke="none"></path>
<circle cx="0" cy="0" r="5.071247089509791" fill="#8be8fd">
  <animateMotion begin="-17.322974252507947s" dur="20s" repeatCount="indefinite">
    <mpath xlink:href="#path0"></mpath>
  </animateMotion>
</circle><path id="path1" d="M 181.42634757892196 227.7912640257459
c 0 33.846669774002756 -8.281631965979397 9.721915786149728 -18.003547752129123 9.721915786149728
S 145.41925207466372 261.6379337997487 145.41925207466372 227.7912640257459
s 8.281631965979397 -9.721915786149728 18.003547752129123 -9.721915786149728
S 181.42634757892196 193.94459425174315 181.42634757892196 227.7912640257459
z" fill="none" stroke="none"></path>
<circle cx="0" cy="0" r="8.608004371449288" fill="#ffb86b">
  <animateMotion begin="-16.175074419791564s" dur="20s" repeatCount="indefinite">
    <mpath xlink:href="#path1"></mpath>
  </animateMotion>
</circle><path id="path2" d="M 1042.6394523359209 113.43311519413793
c 0 37.250724860025 -9.11453906149548 10.69967628958165 -19.81421535107713 10.69967628958165
S 1003.0110216337666 150.68384005416294 1003.0110216337666 113.43311519413793
s 9.11453906149548 -10.69967628958165 19.81421535107713 -10.69967628958165
S 1042.6394523359209 76.18239033411292 1042.6394523359209 113.43311519413793
z" fill="none" stroke="none"></path>
<circle cx="0" cy="0" r="6.449034803998812" fill="#8be8fd">
  <animateMotion begin="-15.572901578329361s" dur="20s" repeatCount="indefinite">
    <mpath xlink:href="#path2"></mpath>
  </animateMotion>
</circle><path id="path3" d="M 1827.836101427118 914.8405560945171
c 0 19.97531489405755 -4.887577048545996 5.737590448293127 -10.625167496839122 5.737590448293127
S 1806.5857664334396 934.8158709885746 1806.5857664334396 914.8405560945171
s 4.887577048545996 -5.737590448293127 10.625167496839122 -5.737590448293127
S 1827.836101427118 894.8652412004595 1827.836101427118 914.8405560945171
z" fill="none" stroke="none"></path>
<circle cx="0" cy="0" r="7.328612343668265" fill="#bf95f9">
  <animateMotion begin="-15.651871873061388s" dur="20s" repeatCount="indefinite">
    <mpath xlink:href="#path3"></mpath>
  </animateMotion>
</circle><path id="path4" d="M 1858.232165325692 466.83278823954316
c 0 24.864407427178662 -6.083844370479885 7.1419042609981265 -13.225748631478012 7.1419042609981265
S 1831.7806680627361 491.6971956667218 1831.7806680627361 466.83278823954316
s 6.083844370479885 -7.1419042609981265 13.225748631478012 -7.1419042609981265
S 1858.232165325692 441.9683808123645 1858.232165325692 466.83278823954316
z" fill="none" stroke="none"></path>
<circle cx="0" cy="0" r="5.539173675783352" fill="#ff7ac7">
  <animateMotion begin="-7.180962786890475s" dur="20s" repeatCount="indefinite">
    <mpath xlink:href="#path4"></mpath>
  </animateMotion>
</circle><path id="path5" d="M 849.2408904501609 572.6136691648859
c 0 31.369107078301564 -7.675419817031233 9.010275437384491 -16.685695254415723 9.010275437384491
S 815.8694999413295 603.9827762431875 815.8694999413295 572.6136691648859
s 7.675419817031233 -9.010275437384491 16.685695254415723 -9.010275437384491
S 849.2408904501609 541.2445620865843 849.2408904501609 572.6136691648859
z" fill="none" stroke="none"></path>
<circle cx="0" cy="0" r="7.9158543736922855" fill="#52fa7d">
  <animateMotion begin="-19.293618499684044s" dur="20s" repeatCount="indefinite">
    <mpath xlink:href="#path5"></mpath>
  </animateMotion>
</circle><path id="path6" d="M 577.4662134857318 82.9345423303757
c 0 24.8198343537795 -6.072938192946046 7.129101356936665 -13.202039549882711 7.129101356936665
S 551.0621343859665 107.7543766841552 551.0621343859665 82.9345423303757
s 6.072938192946046 -7.129101356936665 13.202039549882711 -7.129101356936665
S 577.4662134857318 58.11470797659621 577.4662134857318 82.9345423303757
z" fill="none" stroke="none"></path>
<circle cx="0" cy="0" r="8.542479818619292" fill="#52fa7d">
  <animateMotion begin="-15.785697858319985s" dur="20s" repeatCount="indefinite">
    <mpath xlink:href="#path6"></mpath>
  </animateMotion>
</circle><path id="path7" d="M 1913.0932911107957 258.8965622271217
c 0 29.811407784142567 -7.294280628034882 8.56285117204095 -15.857131800075832 8.56285117204095
S 1881.379027510644 288.70797001126425 1881.379027510644 258.8965622271217
s 7.294280628034882 -8.56285117204095 15.857131800075832 -8.56285117204095
S 1913.0932911107957 229.08515444297913 1913.0932911107957 258.8965622271217
z" fill="none" stroke="none"></path>
<circle cx="0" cy="0" r="9.646619750949753" fill="#ffb86b">
  <animateMotion begin="-14.27303899711819s" dur="20s" repeatCount="indefinite">
    <mpath xlink:href="#path7"></mpath>
  </animateMotion>
</circle><path id="path8" d="M 1590.4244359436966 845.2729268409425
c 0 25.013405022002672 -6.120301228787887 7.184701442490129 -13.305002671278016 7.184701442490129
S 1563.8144306011404 870.2863318629452 1563.8144306011404 845.2729268409425
s 6.120301228787887 -7.184701442490129 13.305002671278016 -7.184701442490129
S 1590.4244359436966 820.2595218189399 1590.4244359436966 845.2729268409425
z" fill="none" stroke="none"></path>
<circle cx="0" cy="0" r="9.993147881288921" fill="#52fa7d">
  <animateMotion begin="-11.154571961197476s" dur="20s" repeatCount="indefinite">
    <mpath xlink:href="#path8"></mpath>
  </animateMotion>
</circle><path id="path9" d="M 34.58794758491089 901.4566990916329
c 0 34.42180909551402 -8.422357544647047 9.88711537849871 -18.309472923145755 9.88711537849871
S -2.0309982613806206 935.878508187147 -2.0309982613806206 901.4566990916329
s 8.422357544647047 -9.88711537849871 18.309472923145755 -9.88711537849871
S 34.58794758491089 867.0348899961189 34.58794758491089 901.4566990916329
z" fill="none" stroke="none"></path>
<circle cx="0" cy="0" r="7.8253544523462715" fill="#ffb86b">
  <animateMotion begin="-13.02976952011679s" dur="20s" repeatCount="indefinite">
    <mpath xlink:href="#path9"></mpath>
  </animateMotion>
</circle><path id="path10" d="M 344.97246375362204 856.507010059361
c 0 29.23824665676895 -7.154039075592402 8.398219784391081 -15.552258859983484 8.398219784391081
S 313.867946033655 885.74525671613 313.867946033655 856.507010059361
s 7.154039075592402 -8.398219784391081 15.552258859983484 -8.398219784391081
S 344.97246375362204 827.2687634025921 344.97246375362204 856.507010059361
z" fill="none" stroke="none"></path>
<circle cx="0" cy="0" r="9.302088842050042" fill="#8be8fd">
  <animateMotion begin="-8.614147985862628s" dur="20s" repeatCount="indefinite">
    <mpath xlink:href="#path10"></mpath>
  </animateMotion>
</circle><path id="path11" d="M 1847.4237238126964 762.0936906578189
c 0 26.868645102492493 -6.5742429506098645 7.717589550715929 -14.291832501325795 7.717589550715929
S 1818.8400588100446 788.9623357603114 1818.8400588100446 762.0936906578189
s 6.5742429506098645 -7.717589550715929 14.291832501325795 -7.717589550715929
S 1847.4237238126964 735.2250455553265 1847.4237238126964 762.0936906578189
z" fill="none" stroke="none"></path>
<circle cx="0" cy="0" r="8.886968433810972" fill="#8be8fd">
  <animateMotion begin="-16.247733980402366s" dur="20s" repeatCount="indefinite">
    <mpath xlink:href="#path11"></mpath>
  </animateMotion>
</circle><path id="path12" d="M 650.3331972544912 913.5234858090108
c 0 22.107192637270753 -5.409206709119439 6.349938310705429 -11.759145019824867 6.349938310705429
S 626.8149072148416 935.6306784462815 626.8149072148416 913.5234858090108
s 5.409206709119439 -6.349938310705429 11.759145019824867 -6.349938310705429
S 650.3331972544912 891.4162931717401 650.3331972544912 913.5234858090108
z" fill="none" stroke="none"></path>
<circle cx="0" cy="0" r="6.441900463653333" fill="#ff7ac7">
  <animateMotion begin="-18.741274798602664s" dur="20s" repeatCount="indefinite">
    <mpath xlink:href="#path12"></mpath>
  </animateMotion>
</circle><path id="path13" d="M 1087.2600594440567 183.1778669811697
c 0 21.12508153356651 -5.168902928425848 6.067842568152083 -11.236745496577932 6.067842568152083
S 1064.7865684509009 204.30294851473622 1064.7865684509009 183.1778669811697
s 5.168902928425848 -6.067842568152083 11.236745496577932 -6.067842568152083
S 1087.2600594440567 162.05278544760318 1087.2600594440567 183.1778669811697
z" fill="none" stroke="none"></path>
<circle cx="0" cy="0" r="6.999591751865091" fill="#ffb86b">
  <animateMotion begin="-4.839476572081458s" dur="20s" repeatCount="indefinite">
    <mpath xlink:href="#path13"></mpath>
  </animateMotion>
</circle><path id="path14" d="M 731.8586636262946 798.9277243562786
c 0 31.942622101126446 -7.815747960913916 9.175008475855469 -16.990756436769384 9.175008475855469
S 697.8771507527558 830.870346457405 697.8771507527558 798.9277243562786
s 7.815747960913916 -9.175008475855469 16.990756436769384 -9.175008475855469
S 731.8586636262946 766.9851022551522 731.8586636262946 798.9277243562786
z" fill="none" stroke="none"></path>
<circle cx="0" cy="0" r="5.266856777671295" fill="#bf95f9">
  <animateMotion begin="-8.857578222833684s" dur="20s" repeatCount="indefinite">
    <mpath xlink:href="#path14"></mpath>
  </animateMotion>
</circle><path id="path15" d="M 337.144884671373 294.9618299673491
c 0 35.69500934369458 -8.733885264946545 10.252821832763338 -18.986707097709882 10.252821832763338
S 299.17147047595324 330.65683931104365 299.17147047595324 294.9618299673491
s 8.733885264946545 -10.252821832763338 18.986707097709882 -10.252821832763338
S 337.144884671373 259.26682062365455 337.144884671373 294.9618299673491
z" fill="none" stroke="none"></path>
<circle cx="0" cy="0" r="8.883285071214864" fill="#ff7ac7">
  <animateMotion begin="-13.544701935692629s" dur="20s" repeatCount="indefinite">
    <mpath xlink:href="#path15"></mpath>
  </animateMotion>
</circle><path id="path16" d="M 1850.2622496919766 140.3886813203556
c 0 24.270829198799557 -5.938607144387125 6.971408386889235 -12.91001553127636 6.971408386889235
S 1824.4422186294241 164.65951051915516 1824.4422186294241 140.3886813203556
s 5.938607144387125 -6.971408386889235 12.91001553127636 -6.971408386889235
S 1850.2622496919766 116.11785212155604 1850.2622496919766 140.3886813203556
z" fill="none" stroke="none"></path>
<circle cx="0" cy="0" r="5.8388625307198545" fill="#ff7ac7">
  <animateMotion begin="-11.878414875991702s" dur="20s" repeatCount="indefinite">
    <mpath xlink:href="#path16"></mpath>
  </animateMotion>
</circle><path id="path17" d="M 364.95789242852777 949.3739874792794
c 0 29.894660889984632 -7.314651068826026 8.586764298187076 -15.9014153670131 8.586764298187076
S 333.15506169450157 979.268648369264 333.15506169450157 949.3739874792794
s 7.314651068826026 -8.586764298187076 15.9014153670131 -8.586764298187076
S 364.95789242852777 919.4793265892948 364.95789242852777 949.3739874792794
z" fill="none" stroke="none"></path>
<circle cx="0" cy="0" r="9.666381184963047" fill="#52fa7d">
  <animateMotion begin="-7.850777311447175s" dur="20s" repeatCount="indefinite">
    <mpath xlink:href="#path17"></mpath>
  </animateMotion>
</circle><path id="path18" d="M 1162.1924356486472 435.1313138420921
c 0 22.21555532029178 -5.435720982624584 6.381063762211469 -11.816784744836053 6.381063762211469
S 1138.5588661589752 457.3468691623839 1138.5588661589752 435.1313138420921
s 5.435720982624584 -6.381063762211469 11.816784744836053 -6.381063762211469
S 1162.1924356486472 412.9157585218003 1162.1924356486472 435.1313138420921
z" fill="none" stroke="none"></path>
<circle cx="0" cy="0" r="6.180131649629894" fill="#52fa7d">
  <animateMotion begin="-6.833645479600392s" dur="20s" repeatCount="indefinite">
    <mpath xlink:href="#path18"></mpath>
  </animateMotion>
</circle><path id="path19" d="M 1483.8756511080348 404.14202518017294
c 0 34.59590860347008 -8.46495636042353 9.93712268397545 -18.402079044398977 9.93712268397545
S 1447.0714930192369 438.73793378364303 1447.0714930192369 404.14202518017294
s 8.46495636042353 -9.93712268397545 18.402079044398977 -9.93712268397545
S 1483.8756511080348 369.54611657670284 1483.8756511080348 404.14202518017294
z" fill="none" stroke="none"></path>
<circle cx="0" cy="0" r="9.192504885049136" fill="#ff7ac7">
  <animateMotion begin="-8.544373423177731s" dur="20s" repeatCount="indefinite">
    <mpath xlink:href="#path19"></mpath>
  </animateMotion>
</circle><path id="path20" d="M 1410.0986986889611 554.835756927128
c 0 30.65558388679546 -7.500834355279739 8.805327286632739 -16.306161641912478 8.805327286632739
S 1377.4863754051362 585.4913408139236 1377.4863754051362 554.835756927128
s 7.500834355279739 -8.805327286632739 16.306161641912478 -8.805327286632739
S 1410.0986986889611 524.1801730403325 1410.0986986889611 554.835756927128
z" fill="none" stroke="none"></path>
<circle cx="0" cy="0" r="7.215301775199416" fill="#8be8fd">
  <animateMotion begin="-16.141753115655252s" dur="20s" repeatCount="indefinite">
    <mpath xlink:href="#path20"></mpath>
  </animateMotion>
</circle><path id="path21" d="M 168.51794092607395 32.28846320590582
c 0 33.5255719251731 -8.20306547105299 9.629685552975252 -17.83275102402824 9.629685552975252
S 132.85243887801744 65.81403513107892 132.85243887801744 32.28846320590582
s 8.20306547105299 -9.629685552975252 17.83275102402824 -9.629685552975252
S 168.51794092607395 -1.237108719267276 168.51794092607395 32.28846320590582
z" fill="none" stroke="none"></path>
<circle cx="0" cy="0" r="8.255892779973097" fill="#ffb86b">
  <animateMotion begin="-11.527804186389288s" dur="20s" repeatCount="indefinite">
    <mpath xlink:href="#path21"></mpath>
  </animateMotion>
</circle><path id="path22" d="M 271.13740564438825 359.60220860770517
c 0 23.60852569682327 -5.776554159861012 6.7811722746194505 -12.557726434480463 6.7811722746194505
S 246.02195277542734 383.21073430452844 246.02195277542734 359.60220860770517
s 5.776554159861012 -6.7811722746194505 12.557726434480463 -6.7811722746194505
S 271.13740564438825 335.9936829108819 271.13740564438825 359.60220860770517
z" fill="none" stroke="none"></path>
<circle cx="0" cy="0" r="7.932475097197795" fill="#ff7ac7">
  <animateMotion begin="-1.526065828654657s" dur="20s" repeatCount="indefinite">
    <mpath xlink:href="#path22"></mpath>
  </animateMotion>
</circle><path id="path23" d="M 1774.2700550964053 393.5195400727415
c 0 35.081744267508874 -8.583831044177701 10.076671225773826 -18.660502269951525 10.076671225773826
S 1736.949050556502 428.6012843402504 1736.949050556502 393.5195400727415
s 8.583831044177701 -10.076671225773826 18.660502269951525 -10.076671225773826
S 1774.2700550964053 358.4377958052326 1774.2700550964053 393.5195400727415
z" fill="none" stroke="none"></path>
<circle cx="0" cy="0" r="9.783853045803937" fill="#8be8fd">
  <animateMotion begin="-15.892375678640898s" dur="20s" repeatCount="indefinite">
    <mpath xlink:href="#path23"></mpath>
  </animateMotion>
</circle><path id="path24" d="M 1286.2203317879664 118.5191739995985
c 0 33.472428309290066 -8.190062245890122 9.614420897349275 -17.804483143239395 9.614420897349275
S 1250.6113655014876 151.99160230888856 1250.6113655014876 118.5191739995985
s 8.190062245890122 -9.614420897349275 17.804483143239395 -9.614420897349275
S 1286.2203317879664 85.04674569030843 1286.2203317879664 118.5191739995985
z" fill="none" stroke="none"></path>
<circle cx="0" cy="0" r="6.867394019227379" fill="#8be8fd">
  <animateMotion begin="-12.614307578901741s" dur="20s" repeatCount="indefinite">
    <mpath xlink:href="#path24"></mpath>
  </animateMotion>
</circle><path id="path25" d="M 940.9887146267802 1042.1840896448623
c 0 33.48096007599382 -8.192149805828274 9.616871511189714 -17.809021317017987 9.616871511189714
S 905.3706719927443 1075.6650497208561 905.3706719927443 1042.1840896448623
s 8.192149805828274 -9.616871511189714 17.809021317017987 -9.616871511189714
S 940.9887146267802 1008.7031295688685 940.9887146267802 1042.1840896448623
z" fill="none" stroke="none"></path>
<circle cx="0" cy="0" r="7.165665157460872" fill="#ffb86b">
  <animateMotion begin="-15.246146326261547s" dur="20s" repeatCount="indefinite">
    <mpath xlink:href="#path25"></mpath>
  </animateMotion>
</circle><path id="path26" d="M 251.88636113462059 237.05921973711486
c 0 23.161449577769858 -5.667163194560709 6.6527567936147465 -12.319919988175457 6.6527567936147465
S 227.24652115826967 260.22066931488473 227.24652115826967 237.05921973711486
s 5.667163194560709 -6.6527567936147465 12.319919988175457 -6.6527567936147465
S 251.88636113462059 213.897770159345 251.88636113462059 237.05921973711486
z" fill="none" stroke="none"></path>
<circle cx="0" cy="0" r="7.875467317690835" fill="#ff7ac7">
  <animateMotion begin="-15.734364701294815s" dur="20s" repeatCount="indefinite">
    <mpath xlink:href="#path26"></mpath>
  </animateMotion>
</circle><path id="path27" d="M 1197.4971109908272 527.7659657830511
c 0 37.55947471364012 -9.190084238443857 10.788359758173225 -19.978443996617084 10.788359758173225
S 1157.5402229975932 565.3254404966913 1157.5402229975932 527.7659657830511
s 9.190084238443857 -10.788359758173225 19.978443996617084 -10.788359758173225
S 1197.4971109908272 490.206491069411 1197.4971109908272 527.7659657830511
z" fill="none" stroke="none"></path>
<circle cx="0" cy="0" r="5.944095903224759" fill="#bf95f9">
  <animateMotion begin="-3.5717363425674s" dur="20s" repeatCount="indefinite">
    <mpath xlink:href="#path27"></mpath>
  </animateMotion>
</circle><path id="path28" d="M 384.46429444117916 889.536702617704
c 0 21.899611748742984 -5.358415640649879 6.290314012936815 -11.648729653586694 6.290314012936815
S 361.16683513400574 911.436314366447 361.16683513400574 889.536702617704
s 5.358415640649879 -6.290314012936815 11.648729653586694 -6.290314012936815
S 384.46429444117916 867.637090868961 384.46429444117916 889.536702617704
z" fill="none" stroke="none"></path>
<circle cx="0" cy="0" r="5.134260451722293" fill="#bf95f9">
  <animateMotion begin="-15.708923749511325s" dur="20s" repeatCount="indefinite">
    <mpath xlink:href="#path28"></mpath>
  </animateMotion>
</circle><path id="path29" d="M 1405.5476892833299 1065.0856493790295
c 0 27.22545975666958 -6.66154866386596 7.8200788662774325 -14.481627530143392 7.8200788662774325
S 1376.584434223043 1092.311109135699 1376.584434223043 1065.0856493790295
s 6.66154866386596 -7.8200788662774325 14.481627530143392 -7.8200788662774325
S 1405.5476892833299 1037.86018962236 1405.5476892833299 1065.0856493790295
z" fill="none" stroke="none"></path>
<circle cx="0" cy="0" r="9.300221633478094" fill="#52fa7d">
  <animateMotion begin="-4.81423014031253s" dur="20s" repeatCount="indefinite">
    <mpath xlink:href="#path29"></mpath>
  </animateMotion>
</circle><path id="path30" d="M 340.21119045335075 192.69119643488378
c 0 36.836123558949005 -9.013094062296032 10.580588681825779 -19.59368274412181 10.580588681825779
S 301.02382496510717 229.52731999383278 301.02382496510717 192.69119643488378
s 9.013094062296032 -10.580588681825779 19.59368274412181 -10.580588681825779
S 340.21119045335075 155.85507287593478 340.21119045335075 192.69119643488378
z" fill="none" stroke="none"></path>
<circle cx="0" cy="0" r="5.937770405155591" fill="#52fa7d">
  <animateMotion begin="-9.280227275917689s" dur="20s" repeatCount="indefinite">
    <mpath xlink:href="#path30"></mpath>
  </animateMotion>
</circle><path id="path31" d="M 885.2738373647265 237.1088832118834
c 0 29.708482077849443 -7.269096678622735 8.533287405339733 -15.802384083962469 8.533287405339733
S 853.6690691968016 266.81736528973283 853.6690691968016 237.1088832118834
s 7.269096678622735 -8.533287405339733 15.802384083962469 -8.533287405339733
S 885.2738373647265 207.40040113403396 885.2738373647265 237.1088832118834
z" fill="none" stroke="none"></path>
<circle cx="0" cy="0" r="7.386219159965282" fill="#52fa7d">
  <animateMotion begin="-16.165751312329476s" dur="20s" repeatCount="indefinite">
    <mpath xlink:href="#path31"></mpath>
  </animateMotion>
</circle><path id="path32" d="M 151.05671735799473 1053.6522995654614
c 0 23.858817120870373 -5.837795678510836 6.853064492164895 -12.69086017067573 6.853064492164895
S 125.67499701664326 1077.5111166863317 125.67499701664326 1053.6522995654614
s 5.837795678510836 -6.853064492164895 12.69086017067573 -6.853064492164895
S 151.05671735799473 1029.793482444591 151.05671735799473 1053.6522995654614
z" fill="none" stroke="none"></path>
<circle cx="0" cy="0" r="8.841139990196393" fill="#52fa7d">
  <animateMotion begin="-10.294972447998045s" dur="20s" repeatCount="indefinite">
    <mpath xlink:href="#path32"></mpath>
  </animateMotion>
</circle><path id="path33" d="M 1013.0439169197094 215.5138422037101
c 0 28.98259775019055 -7.091486683557262 8.324788715480265 -15.416275399037527 8.324788715480265
S 982.2113661216343 244.49643995390068 982.2113661216343 215.5138422037101
s 7.091486683557262 -8.324788715480265 15.416275399037527 -8.324788715480265
S 1013.0439169197094 186.53124445351955 1013.0439169197094 215.5138422037101
z" fill="none" stroke="none"></path>
<circle cx="0" cy="0" r="7.949302814169682" fill="#8be8fd">
  <animateMotion begin="-7.1976969461555385s" dur="20s" repeatCount="indefinite">
    <mpath xlink:href="#path33"></mpath>
  </animateMotion>
</circle><path id="path34" d="M 1623.69137670077 313.9212898431199
c 0 32.2189464953498 -7.883359248862184 9.254378248664304 -17.137737497526487 9.254378248664304
S 1589.4159017057168 346.14023633846966 1589.4159017057168 313.9212898431199
s 7.883359248862184 -9.254378248664304 17.137737497526487 -9.254378248664304
S 1623.69137670077 281.7023433477701 1623.69137670077 313.9212898431199
z" fill="none" stroke="none"></path>
<circle cx="0" cy="0" r="9.35441113990979" fill="#8be8fd">
  <animateMotion begin="-4.507230890755505s" dur="20s" repeatCount="indefinite">
    <mpath xlink:href="#path34"></mpath>
  </animateMotion>
</circle><path id="path35" d="M 1891.8489203539773 1021.5839291523
c 0 21.764845356712144 -5.325440885152971 6.2516045173534875 -11.577045402506458 6.2516045173534875
S 1868.6948295489644 1043.3487745090122 1868.6948295489644 1021.5839291523
s 5.325440885152971 -6.2516045173534875 11.577045402506458 -6.2516045173534875
S 1891.8489203539773 999.8190837955879 1891.8489203539773 1021.5839291523
z" fill="none" stroke="none"></path>
<circle cx="0" cy="0" r="6.591066883850462" fill="#52fa7d">
  <animateMotion begin="-6.552959345206095s" dur="20s" repeatCount="indefinite">
    <mpath xlink:href="#path35"></mpath>
  </animateMotion>
</circle><path id="path36" d="M 1140.583220516598 777.3247332697443
c 0 22.135435763178364 -5.416117261203216 6.358050697934211 -11.774167959137428 6.358050697934211
S 1117.034884598323 799.4601690329227 1117.034884598323 777.3247332697443
s 5.416117261203216 -6.358050697934211 11.774167959137428 -6.358050697934211
S 1140.583220516598 755.1892975065659 1140.583220516598 777.3247332697443
z" fill="none" stroke="none"></path>
<circle cx="0" cy="0" r="9.033949999266927" fill="#ffb86b">
  <animateMotion begin="-12.520778323326201s" dur="20s" repeatCount="indefinite">
    <mpath xlink:href="#path36"></mpath>
  </animateMotion>
</circle><path id="path37" d="M 1479.6898524228639 608.1489455425163
c 0 29.420214745902282 -7.198563182508004 8.450487214248527 -15.649050396756532 8.450487214248527
S 1448.3917516293507 637.5691602884186 1448.3917516293507 608.1489455425163
s 7.198563182508004 -8.450487214248527 15.649050396756532 -8.450487214248527
S 1479.6898524228639 578.7287307966141 1479.6898524228639 608.1489455425163
z" fill="none" stroke="none"></path>
<circle cx="0" cy="0" r="7.5654398441030954" fill="#52fa7d">
  <animateMotion begin="-12.342025769360582s" dur="20s" repeatCount="indefinite">
    <mpath xlink:href="#path37"></mpath>
  </animateMotion>
</circle><path id="path38" d="M 1691.8110627383387 957.0239293102999
c 0 34.116333793830044 -8.347613587852031 9.799372472695865 -18.146986060547896 9.799372472695865
S 1655.5170906172427 991.1402631041299 1655.5170906172427 957.0239293102999
s 8.347613587852031 -9.799372472695865 18.146986060547896 -9.799372472695865
S 1691.8110627383387 922.9075955164699 1691.8110627383387 957.0239293102999
z" fill="none" stroke="none"></path>
<circle cx="0" cy="0" r="8.314753685091846" fill="#ffb86b">
  <animateMotion begin="-8.580251543682165s" dur="20s" repeatCount="indefinite">
    <mpath xlink:href="#path38"></mpath>
  </animateMotion>
</circle><path id="path39" d="M 942.5979142194248 887.7055849196115
c 0 27.673191989501767 -6.7711001676440485 7.948682805495189 -14.719782973139237 7.948682805495189
S 913.1583482731463 915.3787769091133 913.1583482731463 887.7055849196115
s 6.7711001676440485 -7.948682805495189 14.719782973139237 -7.948682805495189
S 942.5979142194248 860.0323929301097 942.5979142194248 887.7055849196115
z" fill="none" stroke="none"></path>
<circle cx="0" cy="0" r="8.89143441894038" fill="#8be8fd">
  <animateMotion begin="-4.745203450896605s" dur="20s" repeatCount="indefinite">
    <mpath xlink:href="#path39"></mpath>
  </animateMotion>
</circle><path id="path40" d="M 43.27441808053315 648.047540280812
c 0 23.69463908530724 -5.79762445704326 6.8059069713116545 -12.603531428354914 6.8059069713116545
S 18.067355223823327 671.7421793661192 18.067355223823327 648.047540280812
s 5.79762445704326 -6.8059069713116545 12.603531428354914 -6.8059069713116545
S 43.27441808053315 624.3529011955047 43.27441808053315 648.047540280812
z" fill="none" stroke="none"></path>
<circle cx="0" cy="0" r="9.874636043320299" fill="#ffb86b">
  <animateMotion begin="-7.412006314998507s" dur="20s" repeatCount="indefinite">
    <mpath xlink:href="#path40"></mpath>
  </animateMotion>
</circle><path id="path41" d="M 587.0762232090588 758.2229908996653
c 0 33.0845532877608 -8.095156655515938 9.503009986910016 -17.598166642425955 9.503009986910016
S 551.8798899242067 791.3075441874262 551.8798899242067 758.2229908996653
s 8.095156655515938 -9.503009986910016 17.598166642425955 -9.503009986910016
S 587.0762232090588 725.1384376119045 587.0762232090588 758.2229908996653
z" fill="none" stroke="none"></path>
<circle cx="0" cy="0" r="5.417093186302707" fill="#ffb86b">
  <animateMotion begin="-9.878984704329126s" dur="20s" repeatCount="indefinite">
    <mpath xlink:href="#path41"></mpath>
  </animateMotion>
</circle><path id="path42" d="M 1656.5360833818663 541.7796196911571
c 0 29.374549509853697 -7.187389773687605 8.437370603894147 -15.624760377581753 8.437370603894147
S 1625.286562626703 571.1541692010109 1625.286562626703 541.7796196911571
s 7.187389773687605 -8.437370603894147 15.624760377581753 -8.437370603894147
S 1656.5360833818663 512.4050701813034 1656.5360833818663 541.7796196911571
z" fill="none" stroke="none"></path>
<circle cx="0" cy="0" r="6.2701666973147905" fill="#ffb86b">
  <animateMotion begin="-19.581617430484126s" dur="20s" repeatCount="indefinite">
    <mpath xlink:href="#path42"></mpath>
  </animateMotion>
</circle><path id="path43" d="M 1215.5525766553048 902.6136561042132
c 0 24.690812257161838 -6.041368956539598 7.092041818546485 -13.133410775086084 7.092041818546485
S 1189.2857551051327 927.304468361375 1189.2857551051327 902.6136561042132
s 6.041368956539598 -7.092041818546485 13.133410775086084 -7.092041818546485
S 1215.5525766553048 877.9228438470514 1215.5525766553048 902.6136561042132
z" fill="none" stroke="none"></path>
<circle cx="0" cy="0" r="8.129834327558662" fill="#ff7ac7">
  <animateMotion begin="-3.419547938699141s" dur="20s" repeatCount="indefinite">
    <mpath xlink:href="#path43"></mpath>
  </animateMotion>
</circle><path id="path44" d="M 1409.4955322951002 550.8962291841199
c 0 19.149420716408514 -4.6854965582701675 5.50036552492585 -10.185862083196017 5.50036552492585
S 1389.123808128708 570.0456499005284 1389.123808128708 550.8962291841199
s 4.6854965582701675 -5.50036552492585 10.185862083196017 -5.50036552492585
S 1409.4955322951002 531.7468084677114 1409.4955322951002 550.8962291841199
z" fill="none" stroke="none"></path>
<circle cx="0" cy="0" r="7.1759565095991675" fill="#8be8fd">
  <animateMotion begin="-16.40157677621127s" dur="20s" repeatCount="indefinite">
    <mpath xlink:href="#path44"></mpath>
  </animateMotion>
</circle><path id="path45" d="M 388.7046673997545 585.6855744303957
c 0 19.968547604713926 -4.885921222430003 5.73564665241783 -10.621567874847832 5.73564665241783
S 367.4615316500589 605.6541220351096 367.4615316500589 585.6855744303957
s 4.885921222430003 -5.73564665241783 10.621567874847832 -5.73564665241783
S 388.7046673997545 565.7170268256818 388.7046673997545 585.6855744303957
z" fill="none" stroke="none"></path>
<circle cx="0" cy="0" r="6.061188312779883" fill="#ff7ac7">
  <animateMotion begin="-15.86563691542044s" dur="20s" repeatCount="indefinite">
    <mpath xlink:href="#path45"></mpath>
  </animateMotion>
</circle><path id="path46" d="M 1702.747115454351 343.0128829729857
c 0 36.18425542652113 -8.85359441287219 10.393349962936922 -19.24694437580911 10.393349962936922
S 1664.2532267027327 379.19713839950685 1664.2532267027327 343.0128829729857
s 8.85359441287219 -10.393349962936922 19.24694437580911 -10.393349962936922
S 1702.747115454351 306.8286275464646 1702.747115454351 343.0128829729857
z" fill="none" stroke="none"></path>
<circle cx="0" cy="0" r="6.0868883506797635" fill="#52fa7d">
  <animateMotion begin="-4.010614180258365s" dur="20s" repeatCount="indefinite">
    <mpath xlink:href="#path46"></mpath>
  </animateMotion>
</circle><path id="path47" d="M 162.5327303583476 462.81738593541536
c 0 34.035590420681835 -8.327857230592363 9.776180227217123 -18.104037457809486 9.776180227217123
S 126.32465544272864 496.8529763560972 126.32465544272864 462.81738593541536
s 8.327857230592363 -9.776180227217123 18.104037457809486 -9.776180227217123
S 162.5327303583476 428.7817955147335 162.5327303583476 462.81738593541536
z" fill="none" stroke="none"></path>
<circle cx="0" cy="0" r="9.80143602612732" fill="#8be8fd">
  <animateMotion begin="-4.678495569285186s" dur="20s" repeatCount="indefinite">
    <mpath xlink:href="#path47"></mpath>
  </animateMotion>
</circle><path id="path48" d="M 257.41919328412666 617.7606734605333
c 0 27.551089751763566 -6.741224088197467 7.913610886144854 -14.654834974342322 7.913610886144854
S 228.109523335442 645.3117632122969 228.109523335442 617.7606734605333
s 6.741224088197467 -7.913610886144854 14.654834974342322 -7.913610886144854
S 257.41919328412666 590.2095837087697 257.41919328412666 617.7606734605333
z" fill="none" stroke="none"></path>
<circle cx="0" cy="0" r="6.070265372924055" fill="#bf95f9">
  <animateMotion begin="-13.708536942674868s" dur="20s" repeatCount="indefinite">
    <mpath xlink:href="#path48"></mpath>
  </animateMotion>
</circle><path id="path49" d="M 1644.9989088765685 313.670501621803
c 0 21.137250937622703 -5.171880548567256 6.071338035274606 -11.243218583841863 6.071338035274606
S 1622.512471708885 334.8077525594257 1622.512471708885 313.670501621803
s 5.171880548567256 -6.071338035274606 11.243218583841863 -6.071338035274606
S 1644.9989088765685 292.5332506841803 1644.9989088765685 313.670501621803
z" fill="none" stroke="none"></path>
<circle cx="0" cy="0" r="7.398122108056934" fill="#ffb86b">
  <animateMotion begin="-15.813232301573423s" dur="20s" repeatCount="indefinite">
    <mpath xlink:href="#path49"></mpath>
  </animateMotion>
</circle><path id="path50" d="M 563.7016429592405 198.01198264194025
c 0 33.23117759009673 -8.131032814598134 9.545125478006506 -17.67615829260464 9.545125478006506
S 528.3493263740312 231.24316023203698 528.3493263740312 198.01198264194025
s 8.131032814598134 -9.545125478006506 17.67615829260464 -9.545125478006506
S 563.7016429592405 164.78080505184352 563.7016429592405 198.01198264194025
z" fill="none" stroke="none"></path>
<circle cx="0" cy="0" r="6.8751537789894925" fill="#ffb86b">
  <animateMotion begin="-18.792575793632622s" dur="20s" repeatCount="indefinite">
    <mpath xlink:href="#path50"></mpath>
  </animateMotion>
</circle><path id="path51" d="M 1303.3018734000211 157.21666058850514
c 0 21.015497213448885 -5.142089743716216 6.036366220884255 -11.17845596460047 6.036366220884255
S 1280.94496147082 178.23215780195403 1280.94496147082 157.21666058850514
s 5.142089743716216 -6.036366220884255 11.17845596460047 -6.036366220884255
S 1303.3018734000211 136.20116337505624 1303.3018734000211 157.21666058850514
z" fill="none" stroke="none"></path>
<circle cx="0" cy="0" r="7.648366238821235" fill="#ff7ac7">
  <animateMotion begin="-13.506117199629863s" dur="20s" repeatCount="indefinite">
    <mpath xlink:href="#path51"></mpath>
  </animateMotion>
</circle><path id="path52" d="M 759.1737509071444 523.6219721450109
c 0 36.18533957761791 -8.853859683885233 10.393661368039186 -19.24752105192442 10.393661368039186
S 720.6787088032955 559.8073117226288 720.6787088032955 523.6219721450109
s 8.853859683885233 -10.393661368039186 19.24752105192442 -10.393661368039186
S 759.1737509071444 487.43663256739296 759.1737509071444 523.6219721450109
z" fill="none" stroke="none"></path>
<circle cx="0" cy="0" r="6.574062404870888" fill="#ffb86b">
  <animateMotion begin="-10.828949408385249s" dur="20s" repeatCount="indefinite">
    <mpath xlink:href="#path52"></mpath>
  </animateMotion>
</circle><path id="path53" d="M 547.4506050812578 647.5739619222185
c 0 32.487696756272236 -7.949117291428312 9.33157247254628 -17.280689763974593 9.33157247254628
S 512.8892255533086 680.0616586784907 512.8892255533086 647.5739619222185
s 7.949117291428312 -9.33157247254628 17.280689763974593 -9.33157247254628
S 547.4506050812578 615.0862651659462 547.4506050812578 647.5739619222185
z" fill="none" stroke="none"></path>
<circle cx="0" cy="0" r="8.079594372339454" fill="#bf95f9">
  <animateMotion begin="-14.391730799385968s" dur="20s" repeatCount="indefinite">
    <mpath xlink:href="#path53"></mpath>
  </animateMotion>
</circle><path id="path54" d="M 634.9710742252186 374.38996049712824
c 0 19.231713598564564 -4.705632050712606 5.524002842140886 -10.229634892853491 5.524002842140886
S 614.5118044395116 393.6216740956928 614.5118044395116 374.38996049712824
s 4.705632050712606 -5.524002842140886 10.229634892853491 -5.524002842140886
S 634.9710742252186 355.1582468985637 634.9710742252186 374.38996049712824
z" fill="none" stroke="none"></path>
<circle cx="0" cy="0" r="5.4713652224146605" fill="#8be8fd">
  <animateMotion begin="-1.3870337103538022s" dur="20s" repeatCount="indefinite">
    <mpath xlink:href="#path54"></mpath>
  </animateMotion>
</circle><path id="path55" d="M 619.3254855760034 465.76012362708343
c 0 27.51525197038692 -6.73245526934999 7.903317055323902 -14.635772324673892 7.903317055323902
S 590.0539409266556 493.2753755974704 590.0539409266556 465.76012362708343
s 6.73245526934999 -7.903317055323902 14.635772324673892 -7.903317055323902
S 619.3254855760034 438.2448716566965 619.3254855760034 465.76012362708343
z" fill="none" stroke="none"></path>
<circle cx="0" cy="0" r="6.803171616468385" fill="#52fa7d">
  <animateMotion begin="-3.9423562220423314s" dur="20s" repeatCount="indefinite">
    <mpath xlink:href="#path55"></mpath>
  </animateMotion>
</circle><path id="path56" d="M 112.44808871798385 215.32315814984256
c 0 20.337766115470174 -4.9762619218703605 5.8416987778478155 -10.817960699718176 5.8416987778478155
S 90.81216731854751 235.66092426531273 90.81216731854751 215.32315814984256
s 4.9762619218703605 -5.8416987778478155 10.817960699718176 -5.8416987778478155
S 112.44808871798385 194.98539203437238 112.44808871798385 215.32315814984256
z" fill="none" stroke="none"></path>
<circle cx="0" cy="0" r="7.704361133072769" fill="#ffb86b">
  <animateMotion begin="-14.724849472164184s" dur="20s" repeatCount="indefinite">
    <mpath xlink:href="#path56"></mpath>
  </animateMotion>
</circle><path id="path57" d="M 496.98327037517663 335.90794319327216
c 0 24.456354198156383 -5.98400155912337 7.024697482449175 -13.008699041572545 7.024697482449175
S 470.9658722920316 360.3642973914285 470.9658722920316 335.90794319327216
s 5.98400155912337 -7.024697482449175 13.008699041572545 -7.024697482449175
S 496.98327037517663 311.4515889951158 496.98327037517663 335.90794319327216
z" fill="none" stroke="none"></path>
<circle cx="0" cy="0" r="7.6885522142527325" fill="#ffb86b">
  <animateMotion begin="-2.626920188453643s" dur="20s" repeatCount="indefinite">
    <mpath xlink:href="#path57"></mpath>
  </animateMotion>
</circle><path id="path58" d="M 369.91222626882814 123.30934789602742
c 0 21.564709245936733 -5.2764714112398385 6.194118613194594 -11.470590024434433 6.194118613194594
S 346.97104621995925 144.87405714196416 346.97104621995925 123.30934789602742
s 5.2764714112398385 -6.194118613194594 11.470590024434433 -6.194118613194594
S 369.91222626882814 101.74463865009068 369.91222626882814 123.30934789602742
z" fill="none" stroke="none"></path>
<circle cx="0" cy="0" r="5.378847715107212" fill="#52fa7d">
  <animateMotion begin="-12.466117562573555s" dur="20s" repeatCount="indefinite">
    <mpath xlink:href="#path58"></mpath>
  </animateMotion>
</circle><path id="path59" d="M 1397.6555772726845 1013.8662549510491
c 0 37.133273927187304 -9.08580106729051 10.665940383341034 -19.751741450631542 10.665940383341034
S 1358.1520943714215 1050.9995288782363 1358.1520943714215 1013.8662549510491
s 9.08580106729051 -10.665940383341034 19.751741450631542 -10.665940383341034
S 1397.6555772726845 976.7329810238618 1397.6555772726845 1013.8662549510491
z" fill="none" stroke="none"></path>
<circle cx="0" cy="0" r="8.687774800428969" fill="#8be8fd">
  <animateMotion begin="-18.88587888034492s" dur="20s" repeatCount="indefinite">
    <mpath xlink:href="#path59"></mpath>
  </animateMotion>
</circle><path id="path60" d="M 439.7597046055406 733.722044072106
c 0 30.11483142774142 -7.368522583383538 8.650004771798068 -16.018527355181607 8.650004771798068
S 407.72264989517737 763.8368754998473 407.72264989517737 733.722044072106
s 7.368522583383538 -8.650004771798068 16.018527355181607 -8.650004771798068
S 439.7597046055406 703.6072126443646 439.7597046055406 733.722044072106
z" fill="none" stroke="none"></path>
<circle cx="0" cy="0" r="8.316358313974568" fill="#8be8fd">
  <animateMotion begin="-10.467222002561414s" dur="20s" repeatCount="indefinite">
    <mpath xlink:href="#path60"></mpath>
  </animateMotion>
</circle><path id="path61" d="M 364.7698534714863 445.83586906572714
c 0 37.07950950405596 -9.072645942481778 10.650497410739478 -19.723143353221253 10.650497410739478
S 325.3235667650438 482.9153785697831 325.3235667650438 445.83586906572714
s 9.072645942481778 -10.650497410739478 19.723143353221253 -10.650497410739478
S 364.7698534714863 408.75635956167116 364.7698534714863 445.83586906572714
z" fill="none" stroke="none"></path>
<circle cx="0" cy="0" r="8.875427803881784" fill="#bf95f9">
  <animateMotion begin="-1.0211116949402754s" dur="20s" repeatCount="indefinite">
    <mpath xlink:href="#path61"></mpath>
  </animateMotion>
</circle><path id="path62" d="M 81.93476330914247 681.4385159944704
c 0 26.045587559443938 -6.372856530502239 7.4811794053721945 -13.854035935874434 7.4811794053721945
S 54.2266914373936 707.4841035539143 54.2266914373936 681.4385159944704
s 6.372856530502239 -7.4811794053721945 13.854035935874434 -7.4811794053721945
S 81.93476330914247 655.3929284350265 81.93476330914247 681.4385159944704
z" fill="none" stroke="none"></path>
<circle cx="0" cy="0" r="8.715424828648555" fill="#52fa7d">
  <animateMotion begin="-3.0640900399753557s" dur="20s" repeatCount="indefinite">
    <mpath xlink:href="#path62"></mpath>
  </animateMotion>
</circle><path id="path63" d="M 1910.489206330855 487.23225005941475
c 0 27.384525182828327 -6.700468927713313 7.865767871663455 -14.566236799376767 7.865767871663455
S 1881.3567327321014 514.6167752422431 1881.3567327321014 487.23225005941475
s 6.700468927713313 -7.865767871663455 14.566236799376767 -7.865767871663455
S 1910.489206330855 459.8477248765864 1910.489206330855 487.23225005941475
z" fill="none" stroke="none"></path>
<circle cx="0" cy="0" r="6.519813989187214" fill="#bf95f9">
  <animateMotion begin="-3.5354057298849284s" dur="20s" repeatCount="indefinite">
    <mpath xlink:href="#path63"></mpath>
  </animateMotion>
</circle><path id="path64" d="M 1791.938443254838 582.906233277775
c 0 32.48311292461067 -7.947995715596228 9.330255840047748 -17.278251555643976 9.330255840047748
S 1757.38194014355 615.3893462023856 1757.38194014355 582.906233277775
s 7.947995715596228 -9.330255840047748 17.278251555643976 -9.330255840047748
S 1791.938443254838 550.4231203531643 1791.938443254838 582.906233277775
z" fill="none" stroke="none"></path>
<circle cx="0" cy="0" r="8.351679768379276" fill="#ff7ac7">
  <animateMotion begin="-6.315060174769416s" dur="20s" repeatCount="indefinite">
    <mpath xlink:href="#path64"></mpath>
  </animateMotion>
</circle><path id="path65" d="M 908.7069464666513 895.939731495283
c 0 32.156776998834864 -7.8681475635447 9.236521052856823 -17.104668616401526 9.236521052856823
S 874.4976092338482 928.0965084941179 874.4976092338482 895.939731495283
s 7.8681475635447 -9.236521052856823 17.104668616401526 -9.236521052856823
S 908.7069464666513 863.7829544964482 908.7069464666513 895.939731495283
z" fill="none" stroke="none"></path>
<circle cx="0" cy="0" r="5.569978733173054" fill="#8be8fd">
  <animateMotion begin="-18.307870121384397s" dur="20s" repeatCount="indefinite">
    <mpath xlink:href="#path65"></mpath>
  </animateMotion>
</circle><path id="path66" d="M 340.99306175889126 993.2810692985605
c 0 20.810611532706968 -5.091958140981491 5.97751607854349 -11.069474219524981 5.97751607854349
S 318.8541133198413 1014.0916808312675 318.8541133198413 993.2810692985605
s 5.091958140981491 -5.97751607854349 11.069474219524981 -5.97751607854349
S 340.99306175889126 972.4704577658536 340.99306175889126 993.2810692985605
z" fill="none" stroke="none"></path>
<circle cx="0" cy="0" r="8.064119539671893" fill="#52fa7d">
  <animateMotion begin="-0.7971377333740604s" dur="20s" repeatCount="indefinite">
    <mpath xlink:href="#path66"></mpath>
  </animateMotion>
</circle><path id="path67" d="M 209.27183065308475 282.22110460934954
c 0 29.390185313655 -7.1912155554687756 8.441861739028564 -15.63307729449734 8.441861739028564
S 178.00567606409004 311.61128992300456 178.00567606409004 282.22110460934954
s 7.1912155554687756 -8.441861739028564 15.63307729449734 -8.441861739028564
S 209.27183065308475 252.83091929569454 209.27183065308475 282.22110460934954
z" fill="none" stroke="none"></path>
<circle cx="0" cy="0" r="6.056634047956656" fill="#52fa7d">
  <animateMotion begin="-19.229489986182735s" dur="20s" repeatCount="indefinite">
    <mpath xlink:href="#path67"></mpath>
  </animateMotion>
</circle><path id="path68" d="M 1526.1309323882417 76.41130171678954
c 0 21.926624981631097 -5.365025261462927 6.298073133021698 -11.663098394484626 6.298073133021698
S 1502.8047355992724 98.33792669842063 1502.8047355992724 76.41130171678954
s 5.365025261462927 -6.298073133021698 11.663098394484626 -6.298073133021698
S 1526.1309323882417 54.484676735158445 1526.1309323882417 76.41130171678954
z" fill="none" stroke="none"></path>
<circle cx="0" cy="0" r="7.657204139746127" fill="#ffb86b">
  <animateMotion begin="-12.622989012993248s" dur="20s" repeatCount="indefinite">
    <mpath xlink:href="#path68"></mpath>
  </animateMotion>
</circle><path id="path69" d="M 1239.747785698384 838.6536348755125
c 0 28.99464099873767 -7.094433435861344 8.328247946445927 -15.422681382307271 8.328247946445927
S 1208.9024229337695 867.6482758742501 1208.9024229337695 838.6536348755125
s 7.094433435861344 -8.328247946445927 15.422681382307271 -8.328247946445927
S 1239.747785698384 809.6589938767748 1239.747785698384 838.6536348755125
z" fill="none" stroke="none"></path>
<circle cx="0" cy="0" r="5.047864130097257" fill="#ff7ac7">
  <animateMotion begin="-6.913607683038321s" dur="20s" repeatCount="indefinite">
    <mpath xlink:href="#path69"></mpath>
  </animateMotion>
</circle><path id="path70" d="M 1572.282867185243 1064.0967275034377
c 0 28.283518792163907 -6.9204354491464874 8.123989440302399 -15.044424889448887 8.123989440302399
S 1542.1940174063452 1092.3802462956016 1542.1940174063452 1064.0967275034377
s 6.9204354491464874 -8.123989440302399 15.044424889448887 -8.123989440302399
S 1572.282867185243 1035.8132087112738 1572.282867185243 1064.0967275034377
z" fill="none" stroke="none"></path>
<circle cx="0" cy="0" r="6.924293593823539" fill="#bf95f9">
  <animateMotion begin="-18.829877049734534s" dur="20s" repeatCount="indefinite">
    <mpath xlink:href="#path70"></mpath>
  </animateMotion>
</circle><path id="path71" d="M 873.2601880274754 964.6127067810527
c 0 29.95924624079002 -7.3304538674273445 8.605315409588624 -15.935769277015968 8.605315409588624
S 841.3886494734434 994.5719530218427 841.3886494734434 964.6127067810527
s 7.3304538674273445 -8.605315409588624 15.935769277015968 -8.605315409588624
S 873.2601880274754 934.6534605402627 873.2601880274754 964.6127067810527
z" fill="none" stroke="none"></path>
<circle cx="0" cy="0" r="5.207270811703676" fill="#bf95f9">
  <animateMotion begin="-19.397584049418395s" dur="20s" repeatCount="indefinite">
    <mpath xlink:href="#path71"></mpath>
  </animateMotion>
</circle><path id="path72" d="M 1825.8428090671362 108.19993756695928
c 0 26.331385290474604 -6.442785762562934 7.563270243008662 -14.006056005571597 7.563270243008662
S 1797.8306970559931 134.53132285743388 1797.8306970559931 108.19993756695928
s 6.442785762562934 -7.563270243008662 14.006056005571597 -7.563270243008662
S 1825.8428090671362 81.86855227648468 1825.8428090671362 108.19993756695928
z" fill="none" stroke="none"></path>
<circle cx="0" cy="0" r="7.82223478458112" fill="#ff7ac7">
  <animateMotion begin="-1.5928053741395853s" dur="20s" repeatCount="indefinite">
    <mpath xlink:href="#path72"></mpath>
  </animateMotion>
</circle><path id="path73" d="M 997.6426819199994 858.3004419493369
c 0 22.024811123473963 -5.389049530211714 6.326275535465926 -11.71532506567764 6.326275535465926
S 974.212031788644 880.3252530728108 974.212031788644 858.3004419493369
s 5.389049530211714 -6.326275535465926 11.71532506567764 -6.326275535465926
S 997.6426819199994 836.275630825863 997.6426819199994 858.3004419493369
z" fill="none" stroke="none"></path>
<circle cx="0" cy="0" r="7.918071657138034" fill="#52fa7d">
  <animateMotion begin="-0.12449814449894792s" dur="20s" repeatCount="indefinite">
    <mpath xlink:href="#path73"></mpath>
  </animateMotion>
</circle><path id="path74" d="M 1278.8568883170244 976.7480458344953
c 0 20.894826632806247 -5.112563963346209 6.001705522189028 -11.114269485535237 6.001705522189028
S 1256.628349345954 997.6428724673016 1256.628349345954 976.7480458344953
s 5.112563963346209 -6.001705522189028 11.114269485535237 -6.001705522189028
S 1278.8568883170244 955.8532192016891 1278.8568883170244 976.7480458344953
z" fill="none" stroke="none"></path>
<circle cx="0" cy="0" r="8.039569516583628" fill="#8be8fd">
  <animateMotion begin="-6.885550248744279s" dur="20s" repeatCount="indefinite">
    <mpath xlink:href="#path74"></mpath>
  </animateMotion>
</circle><path id="path75" d="M 37.92374068712381 1001.4035334539683
c 0 32.646799610269845 -7.988046713151131 9.377272228481763 -17.365318941632893 9.377272228481763
S 3.193102803858025 1034.0503330642382 3.193102803858025 1001.4035334539683
s 7.988046713151131 -9.377272228481763 17.365318941632893 -9.377272228481763
S 37.92374068712381 968.7567338436985 37.92374068712381 1001.4035334539683
z" fill="none" stroke="none"></path>
<circle cx="0" cy="0" r="6.422365859676335" fill="#ff7ac7">
  <animateMotion begin="-19.00723483417014s" dur="20s" repeatCount="indefinite">
    <mpath xlink:href="#path75"></mpath>
  </animateMotion>
</circle><path id="path76" d="M 53.21014755340803 704.5718657302359
c 0 27.10578544814627 -6.632266652206002 7.785704330850526 -14.417970983056527 7.785704330850526
S 24.374205587294973 731.6776511783822 24.374205587294973 704.5718657302359
s 6.632266652206002 -7.785704330850526 14.417970983056527 -7.785704330850526
S 53.21014755340803 677.4660802820896 53.21014755340803 704.5718657302359
z" fill="none" stroke="none"></path>
<circle cx="0" cy="0" r="9.007111435230133" fill="#bf95f9">
  <animateMotion begin="-17.639413498148325s" dur="20s" repeatCount="indefinite">
    <mpath xlink:href="#path76"></mpath>
  </animateMotion>
</circle><path id="path77" d="M 1135.9636476635778 358.5882103611985
c 0 22.735999209332984 -5.563063636326155 6.530552964382879 -12.093616600709034 6.530552964382879
S 1111.7764144621597 381.3242095705315 1111.7764144621597 358.5882103611985
s 5.563063636326155 -6.530552964382879 12.093616600709034 -6.530552964382879
S 1135.9636476635778 335.8522111518655 1135.9636476635778 358.5882103611985
z" fill="none" stroke="none"></path>
<circle cx="0" cy="0" r="5.603913263142951" fill="#ff7ac7">
  <animateMotion begin="-16.450715250381442s" dur="20s" repeatCount="indefinite">
    <mpath xlink:href="#path77"></mpath>
  </animateMotion>
</circle><path id="path78" d="M 1738.9866526067497 120.88320956489619
c 0 23.690597867626046 -5.796635648461691 6.804746196020247 -12.601381844481939 6.804746196020247
S 1713.7838889177858 144.57380743252224 1713.7838889177858 120.88320956489619
s 5.796635648461691 -6.804746196020247 12.601381844481939 -6.804746196020247
S 1738.9866526067497 97.19261169727014 1738.9866526067497 120.88320956489619
z" fill="none" stroke="none"></path>
<circle cx="0" cy="0" r="5.296598207746015" fill="#8be8fd">
  <animateMotion begin="-13.72675257591997s" dur="20s" repeatCount="indefinite">
    <mpath xlink:href="#path78"></mpath>
  </animateMotion>
</circle><path id="path79" d="M 556.5353650704564 1012.4100778810675
c 0 28.595692876706753 -6.996818469832503 8.213656464585982 -15.210474934418485 8.213656464585982
S 526.1144152016194 1041.0057707577744 526.1144152016194 1012.4100778810675
s 6.996818469832503 -8.213656464585982 15.210474934418485 -8.213656464585982
S 556.5353650704564 983.8143850043608 556.5353650704564 1012.4100778810675
z" fill="none" stroke="none"></path>
<circle cx="0" cy="0" r="8.140236321257579" fill="#bf95f9">
  <animateMotion begin="-18.526264085696663s" dur="20s" repeatCount="indefinite">
    <mpath xlink:href="#path79"></mpath>
  </animateMotion>
</circle><path id="path80" d="M 668.1516676126291 583.7534467321994
c 0 30.535938057535134 -7.471559311950085 8.770960931419665 -16.24252024336975 8.770960931419665
S 635.6666271258896 614.2893847897346 635.6666271258896 583.7534467321994
s 7.471559311950085 -8.770960931419665 16.24252024336975 -8.770960931419665
S 668.1516676126291 553.2175086746643 668.1516676126291 583.7534467321994
z" fill="none" stroke="none"></path>
<circle cx="0" cy="0" r="8.840125208378694" fill="#52fa7d">
  <animateMotion begin="-15.06222751728842s" dur="20s" repeatCount="indefinite">
    <mpath xlink:href="#path80"></mpath>
  </animateMotion>
</circle><path id="path81" d="M 1419.9500069012247 842.0191174050384
c 0 22.903857269983938 -5.604135289464154 6.57876751371879 -12.182902803182944 6.57876751371879
S 1395.5842012948588 864.9229746750224 1395.5842012948588 842.0191174050384
s 5.604135289464154 -6.57876751371879 12.182902803182944 -6.57876751371879
S 1419.9500069012247 819.1152601350544 1419.9500069012247 842.0191174050384
z" fill="none" stroke="none"></path>
<circle cx="0" cy="0" r="8.881259858728125" fill="#ffb86b">
  <animateMotion begin="-2.73718438584587s" dur="20s" repeatCount="indefinite">
    <mpath xlink:href="#path81"></mpath>
  </animateMotion>
</circle><path id="path82" d="M 444.2405007515723 79.84747132150163
c 0 34.72232404261057 -8.495887797660032 9.973433501600908 -18.46932129926094 9.973433501600908
S 407.3018581530505 114.5697953641122 407.3018581530505 79.84747132150163
s 8.495887797660032 -9.973433501600908 18.46932129926094 -9.973433501600908
S 444.2405007515723 45.125147278891056 444.2405007515723 79.84747132150163
z" fill="none" stroke="none"></path>
<circle cx="0" cy="0" r="8.1532115255755" fill="#bf95f9">
  <animateMotion begin="-5.386389322664531s" dur="20s" repeatCount="indefinite">
    <mpath xlink:href="#path82"></mpath>
  </animateMotion>
</circle><path id="path83" d="M 1669.8185610399203 1032.8714566859392
c 0 26.92969139797551 -6.5891798101429435 7.7351241249504135 -14.324303935093356 7.7351241249504135
S 1641.1699531697334 1059.8011480839148 1641.1699531697334 1032.8714566859392
s 6.5891798101429435 -7.7351241249504135 14.324303935093356 -7.7351241249504135
S 1669.8185610399203 1005.9417652879637 1669.8185610399203 1032.8714566859392
z" fill="none" stroke="none"></path>
<circle cx="0" cy="0" r="9.692462140885143" fill="#52fa7d">
  <animateMotion begin="-14.781455010258764s" dur="20s" repeatCount="indefinite">
    <mpath xlink:href="#path83"></mpath>
  </animateMotion>
</circle><path id="path84" d="M 1096.0862326051567 418.1324734938192
c 0 23.66765118903886 -5.79102103561589 6.798155128766481 -12.589176164382373 6.798155128766481
S 1070.9078802763918 441.80012468285804 1070.9078802763918 418.1324734938192
s 5.79102103561589 -6.798155128766481 12.589176164382373 -6.798155128766481
S 1096.0862326051567 394.46482230478034 1096.0862326051567 418.1324734938192
z" fill="none" stroke="none"></path>
<circle cx="0" cy="0" r="8.958131357631494" fill="#ffb86b">
  <animateMotion begin="-5.74244197223726s" dur="20s" repeatCount="indefinite">
    <mpath xlink:href="#path84"></mpath>
  </animateMotion>
</circle><path id="path85" d="M 55.29203523708259 457.9662062162641
c 0 21.261609404812237 -5.202308684156185 6.107058020531175 -11.30936670468736 6.107058020531175
S 32.67330182770786 479.22781562107633 32.67330182770786 457.9662062162641
s 5.202308684156185 -6.107058020531175 11.30936670468736 -6.107058020531175
S 55.29203523708259 436.70459681145184 55.29203523708259 457.9662062162641
z" fill="none" stroke="none"></path>
<circle cx="0" cy="0" r="5.657608535414384" fill="#ff7ac7">
  <animateMotion begin="-7.98119082414912s" dur="20s" repeatCount="indefinite">
    <mpath xlink:href="#path85"></mpath>
  </animateMotion>
</circle><path id="path86" d="M 394.19033776887727 293.1948593367415
c 0 29.41856145699836 -7.198158654371938 8.450012333393147 -15.648170987765084 8.450012333393147
S 362.89399579334713 322.61342079373986 362.89399579334713 293.1948593367415
s 7.198158654371938 -8.450012333393147 15.648170987765084 -8.450012333393147
S 394.19033776887727 263.77629787974314 394.19033776887727 293.1948593367415
z" fill="none" stroke="none"></path>
<circle cx="0" cy="0" r="9.770776603056143" fill="#bf95f9">
  <animateMotion begin="-17.73347757037798s" dur="20s" repeatCount="indefinite">
    <mpath xlink:href="#path86"></mpath>
  </animateMotion>
</circle><path id="path87" d="M 826.9419996456663 205.09049818351357
c 0 32.078676707797804 -7.849037917865418 9.214087990537667 -17.063125908403084 9.214087990537667
S 792.8157478288601 237.16917489131137 792.8157478288601 205.09049818351357
s 7.849037917865418 -9.214087990537667 17.063125908403084 -9.214087990537667
S 826.9419996456663 173.01182147571578 826.9419996456663 205.09049818351357
z" fill="none" stroke="none"></path>
<circle cx="0" cy="0" r="9.913550100358513" fill="#bf95f9">
  <animateMotion begin="-11.49887285925994s" dur="20s" repeatCount="indefinite">
    <mpath xlink:href="#path87"></mpath>
  </animateMotion>
</circle><path id="path88" d="M 57.92853129759567 666.94810984809
c 0 20.59949347932833 -5.040301596005868 5.916875786615584 -10.957177382621452 5.916875786615584
S 36.014176532352764 687.5476033274183 36.014176532352764 666.94810984809
s 5.040301596005868 -5.916875786615584 10.957177382621452 -5.916875786615584
S 57.92853129759567 646.3486163687617 57.92853129759567 666.94810984809
z" fill="none" stroke="none"></path>
<circle cx="0" cy="0" r="8.828262770790522" fill="#bf95f9">
  <animateMotion begin="-17.13882029832677s" dur="20s" repeatCount="indefinite">
    <mpath xlink:href="#path88"></mpath>
  </animateMotion>
</circle><path id="path89" d="M 1155.3080061067963 268.7574499903002
c 0 21.1677681089808 -5.1793475160272155 6.080103605771081 -11.259451121798296 6.080103605771081
S 1132.7891038631997 289.925218099281 1132.7891038631997 268.7574499903002
s 5.1793475160272155 -6.080103605771081 11.259451121798296 -6.080103605771081
S 1155.3080061067963 247.5896818813194 1155.3080061067963 268.7574499903002
z" fill="none" stroke="none"></path>
<circle cx="0" cy="0" r="6.761109281714833" fill="#52fa7d">
  <animateMotion begin="-3.6160267155339154s" dur="20s" repeatCount="indefinite">
    <mpath xlink:href="#path89"></mpath>
  </animateMotion>
</circle><path id="path90" d="M 1694.7481341595878 762.1227702600542
c 0 24.03404917945063 -5.88067160773792 6.90339710473582 -12.78406871247374 6.90339710473582
S 1669.1799967346403 786.1568194395048 1669.1799967346403 762.1227702600542
s 5.88067160773792 -6.90339710473582 12.78406871247374 -6.90339710473582
S 1694.7481341595878 738.0887210806035 1694.7481341595878 762.1227702600542
z" fill="none" stroke="none"></path>
<circle cx="0" cy="0" r="6.556901757035787" fill="#8be8fd">
  <animateMotion begin="-18.77929841869482s" dur="20s" repeatCount="indefinite">
    <mpath xlink:href="#path90"></mpath>
  </animateMotion>
</circle><path id="path91" d="M 467.3205376318398 986.3811679686771
c 0 21.197890983570808 -5.186718006618388 6.0887559208128925 -11.275473927431282 6.0887559208128925
S 444.7695897769772 1007.5790589522479 444.7695897769772 986.3811679686771
s 5.186718006618388 -6.0887559208128925 11.275473927431282 -6.0887559208128925
S 467.3205376318398 965.1832769851063 467.3205376318398 986.3811679686771
z" fill="none" stroke="none"></path>
<circle cx="0" cy="0" r="5.276501116376327" fill="#ff7ac7">
  <animateMotion begin="-1.9734902676941068s" dur="20s" repeatCount="indefinite">
    <mpath xlink:href="#path91"></mpath>
  </animateMotion>
</circle><path id="path92" d="M 662.9713794543555 278.3723265144443
c 0 30.9829398796281 -7.5809320982068735 8.89935507180807 -16.480287170014943 8.89935507180807
S 630.0108051143258 309.3552663940724 630.0108051143258 278.3723265144443
s 7.5809320982068735 -8.89935507180807 16.480287170014943 -8.89935507180807
S 662.9713794543555 247.3893866348162 662.9713794543555 278.3723265144443
z" fill="none" stroke="none"></path>
<circle cx="0" cy="0" r="5.786494699467088" fill="#ffb86b">
  <animateMotion begin="-4.265938123889832s" dur="20s" repeatCount="indefinite">
    <mpath xlink:href="#path92"></mpath>
  </animateMotion>
</circle><path id="path93" d="M 1144.1667205304072 974.3994240641628
c 0 23.926098173247002 -5.854258063666819 6.872389900826266 -12.726647964493086 6.872389900826266
S 1118.713424601421 998.3255222374098 1118.713424601421 974.3994240641628
s 5.854258063666819 -6.872389900826266 12.726647964493086 -6.872389900826266
S 1144.1667205304072 950.4733258909157 1144.1667205304072 974.3994240641628
z" fill="none" stroke="none"></path>
<circle cx="0" cy="0" r="5.944312158847679" fill="#bf95f9">
  <animateMotion begin="-8.546977215289221s" dur="20s" repeatCount="indefinite">
    <mpath xlink:href="#path93"></mpath>
  </animateMotion>
</circle><path id="path94" d="M 108.28666321696934 520.0034383642986
c 0 18.8196836337551 -4.604816208259226 5.405653809695614 -10.010470017954841 5.405653809695614
S 88.26572318105966 538.8231219980537 88.26572318105966 520.0034383642986
s 4.604816208259226 -5.405653809695614 10.010470017954841 -5.405653809695614
S 108.28666321696934 501.1837547305435 108.28666321696934 520.0034383642986
z" fill="none" stroke="none"></path>
<circle cx="0" cy="0" r="5.675567593889236" fill="#52fa7d">
  <animateMotion begin="-4.039028332810695s" dur="20s" repeatCount="indefinite">
    <mpath xlink:href="#path94"></mpath>
  </animateMotion>
</circle><path id="path95" d="M 1346.385479782252 27.909555712522867
c 0 31.837177385722573 -7.789947658208714 9.144721163984144 -16.934668822192858 9.144721163984144
S 1312.5161421378664 59.74673309824544 1312.5161421378664 27.909555712522867
s 7.789947658208714 -9.144721163984144 16.934668822192858 -9.144721163984144
S 1346.385479782252 -3.927621673199706 1346.385479782252 27.909555712522867
z" fill="none" stroke="none"></path>
<circle cx="0" cy="0" r="5.873985281653208" fill="#bf95f9">
  <animateMotion begin="-4.623419195185856s" dur="20s" repeatCount="indefinite">
    <mpath xlink:href="#path95"></mpath>
  </animateMotion>
</circle><path id="path96" d="M 345.9696541771728 555.0599664064955
c 0 24.24472608209748 -5.932220211577041 6.9639106831556585 -12.8961308947327 6.9639106831556585
S 320.17739238770736 579.304692488593 320.17739238770736 555.0599664064955
s 5.932220211577041 -6.9639106831556585 12.8961308947327 -6.9639106831556585
S 345.9696541771728 530.815240324398 345.9696541771728 555.0599664064955
z" fill="none" stroke="none"></path>
<circle cx="0" cy="0" r="5.991287743832727" fill="#ff7ac7">
  <animateMotion begin="-17.897504096919032s" dur="20s" repeatCount="indefinite">
    <mpath xlink:href="#path96"></mpath>
  </animateMotion>
</circle><path id="path97" d="M 1231.1906969164995 517.9585359471148
c 0 30.127794016649236 -7.371694280669494 8.653728068612015 -16.02542234928151 8.653728068612015
S 1199.1398522179363 548.086329963764 1199.1398522179363 517.9585359471148
s 7.371694280669494 -8.653728068612015 16.02542234928151 -8.653728068612015
S 1231.1906969164995 487.83074193046554 1231.1906969164995 517.9585359471148
z" fill="none" stroke="none"></path>
<circle cx="0" cy="0" r="9.785697306380872" fill="#ffb86b">
  <animateMotion begin="-8.933147589371986s" dur="20s" repeatCount="indefinite">
    <mpath xlink:href="#path97"></mpath>
  </animateMotion>
</circle><path id="path98" d="M 426.0488273040434 352.5087315028629
c 0 33.048886196209104 -8.086429601200098 9.49276518401751 -17.579194785217606 9.49276518401751
S 390.89043773360817 385.55761769907195 390.89043773360817 352.5087315028629
s 8.086429601200098 -9.49276518401751 17.579194785217606 -9.49276518401751
S 426.0488273040434 319.4598453066538 426.0488273040434 352.5087315028629
z" fill="none" stroke="none"></path>
<circle cx="0" cy="0" r="6.976707307200041" fill="#bf95f9">
  <animateMotion begin="-11.363208204549817s" dur="20s" repeatCount="indefinite">
    <mpath xlink:href="#path98"></mpath>
  </animateMotion>
</circle><path id="path99" d="M 433.1927752652894 699.3560435410645
c 0 18.81576478569741 -4.603857341181281 5.404528183125852 -10.008385524307133 5.404528183125852
S 413.17600421667515 718.171808326762 413.17600421667515 699.3560435410645
s 4.603857341181281 -5.404528183125852 10.008385524307133 -5.404528183125852
S 433.1927752652894 680.5402787553671 433.1927752652894 699.3560435410645
z" fill="none" stroke="none"></path>
<circle cx="0" cy="0" r="5.51797206826198" fill="#ffb86b">
  <animateMotion begin="-4.778279392128395s" dur="20s" repeatCount="indefinite">
    <mpath xlink:href="#path99"></mpath>
  </animateMotion>
</circle></g>
</svg>